{
	"asset":{
		"generator":"Khronos glTF Blender I/O v4.3.47",
		"version":"2.0"
	},
	"extensionsUsed":[
		"KHR_materials_specular"
	],
	"scene":0,
	"scenes":[
		{
			"name":"Scene",
			"nodes":[
				0
			]
		}
	],
	"nodes":[
		{
			"mesh":0,
			"name":"CATOback",
			"rotation":[
				1,
				0,
				0,
				7.549790126404332e-08
			],
			"translation":[
				-6.620591163635254,
				0.9321815967559814,
				-0.4960536062717438
			]
		}
	],
	"materials":[
		{
			"doubleSided":true,
			"extensions":{
				"KHR_materials_specular":{
					"specularFactor":0
				}
			},
			"name":"BACK.001",
			"pbrMetallicRoughness":{
				"baseColorTexture":{
					"index":0,
					"texCoord":1
				},
				"metallicFactor":0.22727273404598236
			}
		}
	],
	"meshes":[
		{
			"name":"Curve.003",
			"primitives":[
				{
					"attributes":{
						"POSITION":0,
						"NORMAL":1,
						"TEXCOORD_0":2,
						"TEXCOORD_1":3,
						"TEXCOORD_2":4,
						"COLOR_0":5,
						"COLOR_1":6
					},
					"indices":7,
					"material":0
				}
			]
		}
	],
	"textures":[
		{
			"sampler":0,
			"source":0
		}
	],
	"images":[
		{
			"mimeType":"image/jpeg",
			"name":"Unknown",
			"uri":"Unknown.jpg"
		}
	],
	"accessors":[
		{
			"bufferView":0,
			"componentType":5126,
			"count":21536,
			"max":[
				1.0734775066375732,
				1.3616398572921753,
				0.5353615283966064
			],
			"min":[
				-1.1123607158660889,
				-1.144564151763916,
				-0.10167945921421051
			],
			"type":"VEC3"
		},
		{
			"bufferView":1,
			"componentType":5126,
			"count":21536,
			"type":"VEC3"
		},
		{
			"bufferView":2,
			"componentType":5126,
			"count":21536,
			"type":"VEC2"
		},
		{
			"bufferView":3,
			"componentType":5126,
			"count":21536,
			"type":"VEC2"
		},
		{
			"bufferView":4,
			"componentType":5126,
			"count":21536,
			"type":"VEC2"
		},
		{
			"bufferView":5,
			"componentType":5121,
			"count":21536,
			"normalized":true,
			"type":"VEC4"
		},
		{
			"bufferView":6,
			"componentType":5123,
			"count":21536,
			"normalized":true,
			"type":"VEC4"
		},
		{
			"bufferView":7,
			"componentType":5123,
			"count":124836,
			"type":"SCALAR"
		}
	],
	"bufferViews":[
		{
			"buffer":0,
			"byteLength":258432,
			"byteOffset":0,
			"target":34962
		},
		{
			"buffer":0,
			"byteLength":258432,
			"byteOffset":258432,
			"target":34962
		},
		{
			"buffer":0,
			"byteLength":172288,
			"byteOffset":516864,
			"target":34962
		},
		{
			"buffer":0,
			"byteLength":172288,
			"byteOffset":689152,
			"target":34962
		},
		{
			"buffer":0,
			"byteLength":172288,
			"byteOffset":861440,
			"target":34962
		},
		{
			"buffer":0,
			"byteLength":86144,
			"byteOffset":1033728,
			"target":34962
		},
		{
			"buffer":0,
			"byteLength":172288,
			"byteOffset":1119872,
			"target":34962
		},
		{
			"buffer":0,
			"byteLength":249672,
			"byteOffset":1292160,
			"target":34963
		}
	],
	"samplers":[
		{
			"magFilter":9729,
			"minFilter":9987
		}
	],
	"buffers":[
		{
			"byteLength":1541832,
			"uri":"CATRIELBack.bin"
		}
	]
}
