{
	"asset":{
		"generator":"Khronos glTF Blender I/O v4.3.47",
		"version":"2.0"
	},
	"extensionsUsed":[
		"KHR_materials_specular"
	],
	"scene":0,
	"scenes":[
		{
			"name":"Scene",
			"nodes":[
				0
			]
		}
	],
	"nodes":[
		{
			"mesh":0,
			"name":"CATOfront",
			"rotation":[
				1,
				0,
				0,
				7.549790126404332e-08
			],
			"translation":[
				-3.451964855194092,
				0.9363981485366821,
				-0.49540889263153076
			]
		}
	],
	"materials":[
		{
			"doubleSided":true,
			"extensions":{
				"KHR_materials_specular":{
					"specularFactor":0
				}
			},
			"name":"FRONT.001",
			"pbrMetallicRoughness":{
				"baseColorTexture":{
					"index":0
				},
				"metallicFactor":0.22727273404598236
			}
		}
	],
	"meshes":[
		{
			"name":"Curve.008",
			"primitives":[
				{
					"attributes":{
						"POSITION":0,
						"NORMAL":1,
						"TEXCOORD_0":2,
						"TEXCOORD_1":3,
						"TEXCOORD_2":4,
						"COLOR_0":5,
						"COLOR_1":6
					},
					"indices":7,
					"material":0
				}
			]
		}
	],
	"textures":[
		{
			"sampler":0,
			"source":0
		}
	],
	"images":[
		{
			"mimeType":"image/jpeg",
			"name":"Catriel Frente_84,5 x 90 cm",
			"uri":"Catriel%20Frente_845%20x%2090%20cm.jpg"
		}
	],
	"accessors":[
		{
			"bufferView":0,
			"componentType":5126,
			"count":18892,
			"max":[
				1.0734775066375732,
				1.3616398572921753,
				-0.015522455796599388
			],
			"min":[
				-1.1123607158660889,
				-1.1418931484222412,
				-0.47969046235084534
			],
			"type":"VEC3"
		},
		{
			"bufferView":1,
			"componentType":5126,
			"count":18892,
			"type":"VEC3"
		},
		{
			"bufferView":2,
			"componentType":5126,
			"count":18892,
			"type":"VEC2"
		},
		{
			"bufferView":3,
			"componentType":5126,
			"count":18892,
			"type":"VEC2"
		},
		{
			"bufferView":4,
			"componentType":5126,
			"count":18892,
			"type":"VEC2"
		},
		{
			"bufferView":5,
			"componentType":5121,
			"count":18892,
			"normalized":true,
			"type":"VEC4"
		},
		{
			"bufferView":6,
			"componentType":5123,
			"count":18892,
			"normalized":true,
			"type":"VEC4"
		},
		{
			"bufferView":7,
			"componentType":5123,
			"count":110040,
			"type":"SCALAR"
		}
	],
	"bufferViews":[
		{
			"buffer":0,
			"byteLength":226704,
			"byteOffset":0,
			"target":34962
		},
		{
			"buffer":0,
			"byteLength":226704,
			"byteOffset":226704,
			"target":34962
		},
		{
			"buffer":0,
			"byteLength":151136,
			"byteOffset":453408,
			"target":34962
		},
		{
			"buffer":0,
			"byteLength":151136,
			"byteOffset":604544,
			"target":34962
		},
		{
			"buffer":0,
			"byteLength":151136,
			"byteOffset":755680,
			"target":34962
		},
		{
			"buffer":0,
			"byteLength":75568,
			"byteOffset":906816,
			"target":34962
		},
		{
			"buffer":0,
			"byteLength":151136,
			"byteOffset":982384,
			"target":34962
		},
		{
			"buffer":0,
			"byteLength":220080,
			"byteOffset":1133520,
			"target":34963
		}
	],
	"samplers":[
		{
			"magFilter":9729,
			"minFilter":9987
		}
	],
	"buffers":[
		{
			"byteLength":1353600,
			"uri":"CATRIELFront.bin"
		}
	]
}
