{
	"asset":{
		"generator":"Khronos glTF Blender I/O v4.3.47",
		"version":"2.0"
	},
	"extensionsUsed":[
		"KHR_materials_specular",
		"KHR_materials_ior"
	],
	"scene":0,
	"scenes":[
		{
			"name":"Scene",
			"nodes":[
				0
			]
		}
	],
	"nodes":[
		{
			"mesh":0,
			"name":"front",
			"rotation":[
				1,
				0,
				0,
				7.549790126404332e-08
			],
			"translation":[
				-15.698999404907227,
				0.902028501033783,
				3.88649845123291
			]
		}
	],
	"materials":[
		{
			"doubleSided":true,
			"extensions":{
				"KHR_materials_specular":{
					"specularFactor":0
				},
				"KHR_materials_ior":{
					"ior":1
				}
			},
			"name":"FRONT",
			"pbrMetallicRoughness":{
				"baseColorTexture":{
					"index":0
				},
				"metallicFactor":0.36363598704338074
			}
		}
	],
	"meshes":[
		{
			"name":"Curve.001",
			"primitives":[
				{
					"attributes":{
						"POSITION":0,
						"NORMAL":1,
						"TEXCOORD_0":2,
						"TEXCOORD_1":3,
						"TEXCOORD_2":4,
						"COLOR_0":5,
						"COLOR_1":6
					},
					"indices":7,
					"material":0
				}
			]
		}
	],
	"textures":[
		{
			"sampler":0,
			"source":0
		}
	],
	"images":[
		{
			"mimeType":"image/jpeg",
			"name":"front",
			"uri":"front.jpg"
		}
	],
	"accessors":[
		{
			"bufferView":0,
			"componentType":5126,
			"count":25943,
			"max":[
				0.922215461730957,
				1.50675630569458,
				0.14920732378959656
			],
			"min":[
				-1.0997743606567383,
				-1.217537522315979,
				-0.4928577244281769
			],
			"type":"VEC3"
		},
		{
			"bufferView":1,
			"componentType":5126,
			"count":25943,
			"type":"VEC3"
		},
		{
			"bufferView":2,
			"componentType":5126,
			"count":25943,
			"type":"VEC2"
		},
		{
			"bufferView":3,
			"componentType":5126,
			"count":25943,
			"type":"VEC2"
		},
		{
			"bufferView":4,
			"componentType":5126,
			"count":25943,
			"type":"VEC2"
		},
		{
			"bufferView":5,
			"componentType":5121,
			"count":25943,
			"normalized":true,
			"type":"VEC4"
		},
		{
			"bufferView":6,
			"componentType":5123,
			"count":25943,
			"normalized":true,
			"type":"VEC4"
		},
		{
			"bufferView":7,
			"componentType":5123,
			"count":147198,
			"type":"SCALAR"
		}
	],
	"bufferViews":[
		{
			"buffer":0,
			"byteLength":311316,
			"byteOffset":0,
			"target":34962
		},
		{
			"buffer":0,
			"byteLength":311316,
			"byteOffset":311316,
			"target":34962
		},
		{
			"buffer":0,
			"byteLength":207544,
			"byteOffset":622632,
			"target":34962
		},
		{
			"buffer":0,
			"byteLength":207544,
			"byteOffset":830176,
			"target":34962
		},
		{
			"buffer":0,
			"byteLength":207544,
			"byteOffset":1037720,
			"target":34962
		},
		{
			"buffer":0,
			"byteLength":103772,
			"byteOffset":1245264,
			"target":34962
		},
		{
			"buffer":0,
			"byteLength":207544,
			"byteOffset":1349036,
			"target":34962
		},
		{
			"buffer":0,
			"byteLength":294396,
			"byteOffset":1556580,
			"target":34963
		}
	],
	"samplers":[
		{
			"magFilter":9729,
			"minFilter":9987
		}
	],
	"buffers":[
		{
			"byteLength":1850976,
			"uri":"PacoFront.bin"
		}
	]
}
