{
	"asset":{
		"generator":"Khronos glTF Blender I/O v4.3.47",
		"version":"2.0"
	},
	"extensionsUsed":[
		"KHR_materials_specular",
		"KHR_materials_ior"
	],
	"scene":0,
	"scenes":[
		{
			"name":"Scene",
			"nodes":[
				0
			]
		}
	],
	"nodes":[
		{
			"mesh":0,
			"name":"back",
			"rotation":[
				1,
				0,
				0,
				7.549790126404332e-08
			],
			"translation":[
				-13.076777458190918,
				0.902028501033783,
				2.1431331634521484
			]
		}
	],
	"materials":[
		{
			"doubleSided":true,
			"extensions":{
				"KHR_materials_specular":{
					"specularFactor":0
				},
				"KHR_materials_ior":{
					"ior":1
				}
			},
			"name":"BACK",
			"pbrMetallicRoughness":{
				"baseColorTexture":{
					"index":0,
					"texCoord":1
				},
				"metallicFactor":0.36363598704338074
			}
		}
	],
	"meshes":[
		{
			"name":"Curve.002",
			"primitives":[
				{
					"attributes":{
						"POSITION":0,
						"NORMAL":1,
						"TEXCOORD_0":2,
						"TEXCOORD_1":3,
						"TEXCOORD_2":4,
						"COLOR_0":5,
						"COLOR_1":6
					},
					"indices":7,
					"material":0
				}
			]
		}
	],
	"textures":[
		{
			"sampler":0,
			"source":0
		}
	],
	"images":[
		{
			"mimeType":"image/jpeg",
			"name":"back",
			"uri":"back.jpg"
		}
	],
	"accessors":[
		{
			"bufferView":0,
			"componentType":5126,
			"count":19657,
			"max":[
				0.922215461730957,
				1.5067553520202637,
				0.5221953392028809
			],
			"min":[
				-1.0996875762939453,
				-1.21699857711792,
				-0.08893468976020813
			],
			"type":"VEC3"
		},
		{
			"bufferView":1,
			"componentType":5126,
			"count":19657,
			"type":"VEC3"
		},
		{
			"bufferView":2,
			"componentType":5126,
			"count":19657,
			"type":"VEC2"
		},
		{
			"bufferView":3,
			"componentType":5126,
			"count":19657,
			"type":"VEC2"
		},
		{
			"bufferView":4,
			"componentType":5126,
			"count":19657,
			"type":"VEC2"
		},
		{
			"bufferView":5,
			"componentType":5121,
			"count":19657,
			"normalized":true,
			"type":"VEC4"
		},
		{
			"bufferView":6,
			"componentType":5123,
			"count":19657,
			"normalized":true,
			"type":"VEC4"
		},
		{
			"bufferView":7,
			"componentType":5123,
			"count":107796,
			"type":"SCALAR"
		}
	],
	"bufferViews":[
		{
			"buffer":0,
			"byteLength":235884,
			"byteOffset":0,
			"target":34962
		},
		{
			"buffer":0,
			"byteLength":235884,
			"byteOffset":235884,
			"target":34962
		},
		{
			"buffer":0,
			"byteLength":157256,
			"byteOffset":471768,
			"target":34962
		},
		{
			"buffer":0,
			"byteLength":157256,
			"byteOffset":629024,
			"target":34962
		},
		{
			"buffer":0,
			"byteLength":157256,
			"byteOffset":786280,
			"target":34962
		},
		{
			"buffer":0,
			"byteLength":78628,
			"byteOffset":943536,
			"target":34962
		},
		{
			"buffer":0,
			"byteLength":157256,
			"byteOffset":1022164,
			"target":34962
		},
		{
			"buffer":0,
			"byteLength":215592,
			"byteOffset":1179420,
			"target":34963
		}
	],
	"samplers":[
		{
			"magFilter":9729,
			"minFilter":9987
		}
	],
	"buffers":[
		{
			"byteLength":1395012,
			"uri":"PacoBack.bin"
		}
	]
}
